<svg width="17" height="17" fill="none" xmlns="http://www.w3.org/2000/svg"><path d="M7.66 2.016 6.399 5.032c-.226.544-.417.994-.417.994s-.433.037-.958.077a5254.85 5254.85 0 0 1-4.084.31c-.433.032-.822.063-.864.068L0 6.49l.069.069.96.902a6040.13 6040.13 0 0 0 3.635 3.404c.024.019.104-.337-.761 3.344-.36 1.53-.65 2.79-.65 2.79s1.22-.736 2.707-1.648c1.486-.913 2.712-1.657 2.725-1.654.011.003.56.357 1.215.785.657.43 1.636 1.07 2.177 1.422l1.33.869c.19.125.355.227.355.227s.006-.025 0-.056c-.008-.05-.577-2.801-1.09-5.269a77.338 77.338 0 0 1-.223-1.103c0-.019.912-.831 4.21-3.753.361-.32.366-.325.322-.335-.025-.006-1.42-.154-3.1-.33a249.61 249.61 0 0 1-3.084-.332c-.02-.009-.087-.164-.28-.658-.137-.358-.578-1.496-.978-2.531L8.669.38A9.973 9.973 0 0 0 8.516 0c-.005-.006-.39.9-.857 2.016z" fill="#6C6845"/><path d="M7.66 2.016 6.399 5.032c-.226.544-.417.994-.417.994s-.433.037-.958.077a5254.85 5254.85 0 0 1-4.084.31c-.433.032-.822.063-.864.068L0 6.49l.069.069.96.902a6040.13 6040.13 0 0 0 3.635 3.404c.024.019.104-.337-.761 3.344-.36 1.53-.65 2.79-.65 2.79s1.22-.736 2.707-1.648c1.486-.913 2.712-1.657 2.725-1.654.011.003.56.357 1.215.785.657.43 1.636 1.07 2.177 1.422l1.33.869c.19.125.355.227.355.227s.006-.025 0-.056c-.008-.05-.577-2.801-1.09-5.269a77.338 77.338 0 0 1-.223-1.103c0-.019.912-.831 4.21-3.753.361-.32.366-.325.322-.335-.025-.006-1.42-.154-3.1-.33a249.61 249.61 0 0 1-3.084-.332c-.02-.009-.087-.164-.28-.658-.137-.358-.578-1.496-.978-2.531L8.669.38A9.973 9.973 0 0 0 8.516 0c-.005-.006-.39.9-.857 2.016z" fill="#fff" fill-opacity=".6"/></svg>